vn 1.570796 0.000000 -1.047197
v 0.300000 0.000000 -1.000000
vn 1.570796 0.000000 1.047197
v 0.300000 0.000000 1.000000
vn -0.785398 1.360350 -1.047198
v -0.150000 0.259808 -1.000000
vn -0.785398 1.360350 1.047198
v -0.150000 0.259808 1.000000
vn -0.785398 -1.360350 -1.047198
v -0.150000 -0.259808 -1.000000
vn -0.785398 -1.360350 1.047198
v -0.150000 -0.259808 1.000000
f 1/1/1 3/1/3 4/1/4
f 3/1/3 5/1/5 6/1/6
f 5/1/5 1/1/1 2/1/2
f 4/1/4 2/1/2 1/1/1
f 6/1/6 4/1/4 3/1/3
f 2/1/2 6/1/6 5/1/5
f 4/1/4 6/1/6 2/1/2
f 1/1/1 5/1/5 3/1/3
