vn 2.720699 0.000000 -2.094395
v 0.300000 0.000000 -1.000000
vn 2.720699 0.000000 2.094395
v 0.300000 0.000000 1.000000
vn 1.360349 2.356194 -2.094395
v 0.150000 0.259808 -1.000000
vn 1.360349 2.356194 2.094395
v 0.150000 0.259808 1.000000
vn -1.360349 2.356194 -2.094395
v -0.150000 0.259808 -1.000000
vn -1.360349 2.356194 2.094395
v -0.150000 0.259808 1.000000
vn -2.720699 0.000000 -2.094395
v -0.300000 0.000000 -1.000000
vn -2.720699 0.000000 2.094395
v -0.300000 0.000000 1.000000
vn -1.360349 -2.356194 -2.094395
v -0.150000 -0.259808 -1.000000
vn -1.360349 -2.356194 2.094395
v -0.150000 -0.259808 1.000000
vn 1.360349 -2.356194 -2.094395
v 0.150000 -0.259808 -1.000000
vn 1.360349 -2.356194 2.094395
v 0.150000 -0.259808 1.000000
vn 5.441398 3.141593 0.000000
v 0.225000 0.129904 0.000000
vn 0.000000 6.283185 0.000000
v 0.000000 0.259808 0.000000
vn -5.441399 3.141593 0.000000
v -0.225000 0.129904 0.000000
vn -5.441398 -3.141593 0.000000
v -0.225000 -0.129904 0.000000
vn 0.000000 -6.283185 0.000000
v -0.000000 -0.259808 0.000000
vn 5.441399 -3.141593 0.000000
v 0.225000 -0.129904 0.000000
vn 0.000000 0.000000 6.283185
v -0.000000 0.000000 1.000000
vn 0.000000 0.000000 -6.283185
v -0.000000 0.000000 -1.000000
f 2/1/2 13/1/13 4/1/4
f 1/1/1 13/1/13 2/1/2
f 3/1/3 13/1/13 1/1/1
f 4/1/4 13/1/13 3/1/3
f 4/1/4 14/1/14 6/1/6
f 3/1/3 14/1/14 4/1/4
f 5/1/5 14/1/14 3/1/3
f 6/1/6 14/1/14 5/1/5
f 6/1/6 15/1/15 8/1/8
f 5/1/5 15/1/15 6/1/6
f 7/1/7 15/1/15 5/1/5
f 8/1/8 15/1/15 7/1/7
f 8/1/8 16/1/16 10/1/10
f 7/1/7 16/1/16 8/1/8
f 9/1/9 16/1/16 7/1/7
f 10/1/10 16/1/16 9/1/9
f 10/1/10 17/1/17 12/1/12
f 9/1/9 17/1/17 10/1/10
f 11/1/11 17/1/17 9/1/9
f 12/1/12 17/1/17 11/1/11
f 12/1/12 18/1/18 2/1/2
f 11/1/11 18/1/18 12/1/12
f 1/1/1 18/1/18 11/1/11
f 2/1/2 18/1/18 1/1/1
f 6/1/6 19/1/19 4/1/4
f 8/1/8 19/1/19 6/1/6
f 10/1/10 19/1/19 8/1/8
f 12/1/12 19/1/19 10/1/10
f 2/1/2 19/1/19 12/1/12
f 4/1/4 19/1/19 2/1/2
f 11/1/11 20/1/20 1/1/1
f 9/1/9 20/1/20 11/1/11
f 7/1/7 20/1/20 9/1/9
f 5/1/5 20/1/20 7/1/7
f 3/1/3 20/1/20 5/1/5
f 1/1/1 20/1/20 3/1/3