vn -0.000000 0.000000 4.160799
v 0.000000 0.000000 1.175571
vn 3.721534 0.000000 1.860767
v 1.051462 0.000000 0.525731
vn 1.150017 3.539389 1.860766
v 0.324920 1.000000 0.525731
vn -3.010785 2.187463 1.860766
v -0.850651 0.618034 0.525731
vn -3.010785 -2.187463 1.860766
v -0.850651 -0.618034 0.525731
vn 1.150017 -3.539389 1.860766
v 0.324920 -1.000000 0.525731
vn 3.010784 2.187463 -1.860766
v 0.850651 0.618034 -0.525731
vn 3.010784 -2.187463 -1.860766
v 0.850651 -0.618034 -0.525731
vn -1.150017 3.539389 -1.860766
v -0.324920 1.000000 -0.525731
vn -3.721534 0.000000 -1.860767
v -1.051462 0.000000 -0.525731
vn -1.150017 -3.539389 -1.860766
v -0.324920 -1.000000 -0.525731
vn 0.000000 0.000000 -4.160798
v 0.000000 0.000000 -1.175571
f 2/1/2 3/1/3 1/1/1
f 3/1/3 4/1/4 1/1/1
f 4/1/4 5/1/5 1/1/1
f 5/1/5 6/1/6 1/1/1
f 6/1/6 2/1/2 1/1/1
f 6/1/6 8/1/8 2/1/2
f 8/1/8 7/1/7 2/1/2
f 7/1/7 3/1/3 2/1/2
f 7/1/7 9/1/9 3/1/3
f 9/1/9 4/1/4 3/1/3
f 9/1/9 10/1/10 4/1/4
f 10/1/10 5/1/5 4/1/4
f 10/1/10 11/1/11 5/1/5
f 11/1/11 6/1/6 5/1/5
f 11/1/11 8/1/8 6/1/6
f 8/1/8 12/1/12 7/1/7
f 12/1/12 9/1/9 7/1/7
f 11/1/11 12/1/12 8/1/8
f 12/1/12 10/1/10 9/1/9
f 12/1/12 11/1/11 10/1/10
