vn -0.000000 -0.000000 5.669947
v 0.000000 0.000000 1.000000
vn 5.071354 0.000000 2.535677
v 0.894427 0.000000 0.447214
vn 1.567135 4.823145 2.535677
v 0.276393 0.850651 0.447214
vn -4.102812 2.980867 2.535677
v -0.723607 0.525731 0.447214
vn -4.102812 -2.980867 2.535677
v -0.723607 -0.525731 0.447214
vn 1.567135 -4.823145 2.535677
v 0.276393 -0.850651 0.447214
vn 4.102812 2.980867 -2.535677
v 0.723607 0.525731 -0.447214
vn 4.102812 -2.980867 -2.535677
v 0.723607 -0.525731 -0.447214
vn -1.567135 4.823145 -2.535677
v -0.276393 0.850651 -0.447214
vn -5.071354 0.000000 -2.535677
v -0.894427 0.000000 -0.447214
vn -1.567135 -4.823145 -2.535677
v -0.276393 -0.850651 -0.447214
vn 0.000000 0.000000 -5.669947
v 0.000000 0.000000 -1.000000
vn 2.952964 0.000000 4.777997
v 0.525731 0.000000 0.850651
vn 3.865480 2.808436 2.952965
v 0.688191 0.500000 0.525731
vn 0.912516 2.808436 4.777997
v 0.162460 0.500000 0.850651
vn -1.476482 4.544145 2.952964
v -0.262866 0.809017 0.525731
vn -2.388999 1.735709 4.777997
v -0.425325 0.309017 0.850651
vn -4.777997 0.000000 2.952965
v -0.850651 0.000000 0.525731
vn -2.388999 -1.735709 4.777997
v -0.425325 -0.309017 0.850651
vn -1.476482 -4.544145 2.952964
v -0.262866 -0.809017 0.525731
vn 0.912516 -2.808436 4.777997
v 0.162460 -0.500000 0.850651
vn 3.865480 -2.808436 2.952965
v 0.688191 -0.500000 0.525731
vn 3.301515 -4.544145 -0.000000
v 0.587785 -0.809017 -0.000000
vn 5.341962 -1.735709 0.000000
v 0.951057 -0.309017 0.000000
vn 4.777997 0.000000 -2.952965
v 0.850651 0.000000 -0.525731
vn 5.341963 1.735709 0.000000
v 0.951057 0.309017 0.000000
vn 3.301515 4.544145 -0.000000
v 0.587785 0.809017 -0.000000
vn 1.476482 4.544145 -2.952964
v 0.262866 0.809017 -0.525731
vn -0.000000 5.616872 0.000000
v 0.000000 1.000000 0.000000
vn -3.301515 4.544145 0.000000
v -0.587785 0.809017 0.000000
vn -3.865480 2.808436 -2.952965
v -0.688191 0.500000 -0.525731
vn -5.341962 1.735709 -0.000000
v -0.951057 0.309017 -0.000000
vn -5.341962 -1.735709 -0.000000
v -0.951057 -0.309017 -0.000000
vn -3.865480 -2.808436 -2.952964
v -0.688191 -0.500000 -0.525731
vn -3.301515 -4.544145 0.000000
v -0.587785 -0.809017 0.000000
vn 0.000000 -5.616872 0.000000
v 0.000000 -1.000000 0.000000
vn 1.476482 -4.544145 -2.952965
v 0.262866 -0.809017 -0.525731
vn 2.388999 -1.735709 -4.777997
v 0.425325 -0.309017 -0.850651
vn 2.388999 1.735709 -4.777997
v 0.425325 0.309017 -0.850651
vn -0.912516 2.808436 -4.777997
v -0.162460 0.500000 -0.850651
vn -0.912516 -2.808436 -4.777997
v -0.162460 -0.500000 -0.850651
vn -2.952964 0.000000 -4.777997
v -0.525731 0.000000 -0.850651
f 15/1/15 13/1/13 14/1/14
f 17/1/17 15/1/15 16/1/16
f 19/1/19 17/1/17 18/1/18
f 21/1/21 19/1/19 20/1/20
f 13/1/13 21/1/21 22/1/22
f 24/1/24 22/1/22 23/1/23
f 26/1/26 24/1/24 25/1/25
f 14/1/14 26/1/26 27/1/27
f 29/1/29 27/1/27 28/1/28
f 16/1/16 29/1/29 30/1/30
f 32/1/32 30/1/30 31/1/31
f 18/1/18 32/1/32 33/1/33
f 35/1/35 33/1/33 34/1/34
f 20/1/20 35/1/35 36/1/36
f 23/1/23 36/1/36 37/1/37
f 39/1/39 25/1/25 38/1/38
f 28/1/28 39/1/39 40/1/40
f 38/1/38 37/1/37 41/1/41
f 31/1/31 40/1/40 42/1/42
f 34/1/34 42/1/42 41/1/41
f 3/1/3 15/1/15 14/1/14
f 1/1/1 13/1/13 15/1/15
f 2/1/2 14/1/14 13/1/13
f 4/1/4 17/1/17 16/1/16
f 1/1/1 15/1/15 17/1/17
f 3/1/3 16/1/16 15/1/15
f 5/1/5 19/1/19 18/1/18
f 1/1/1 17/1/17 19/1/19
f 4/1/4 18/1/18 17/1/17
f 6/1/6 21/1/21 20/1/20
f 1/1/1 19/1/19 21/1/21
f 5/1/5 20/1/20 19/1/19
f 2/1/2 13/1/13 22/1/22
f 1/1/1 21/1/21 13/1/13
f 6/1/6 22/1/22 21/1/21
f 8/1/8 24/1/24 23/1/23
f 2/1/2 22/1/22 24/1/24
f 6/1/6 23/1/23 22/1/22
f 7/1/7 26/1/26 25/1/25
f 2/1/2 24/1/24 26/1/26
f 8/1/8 25/1/25 24/1/24
f 3/1/3 14/1/14 27/1/27
f 2/1/2 26/1/26 14/1/14
f 7/1/7 27/1/27 26/1/26
f 9/1/9 29/1/29 28/1/28
f 3/1/3 27/1/27 29/1/29
f 7/1/7 28/1/28 27/1/27
f 4/1/4 16/1/16 30/1/30
f 3/1/3 29/1/29 16/1/16
f 9/1/9 30/1/30 29/1/29
f 10/1/10 32/1/32 31/1/31
f 4/1/4 30/1/30 32/1/32
f 9/1/9 31/1/31 30/1/30
f 5/1/5 18/1/18 33/1/33
f 4/1/4 32/1/32 18/1/18
f 10/1/10 33/1/33 32/1/32
f 11/1/11 35/1/35 34/1/34
f 5/1/5 33/1/33 35/1/35
f 10/1/10 34/1/34 33/1/33
f 6/1/6 20/1/20 36/1/36
f 5/1/5 35/1/35 20/1/20
f 11/1/11 36/1/36 35/1/35
f 8/1/8 23/1/23 37/1/37
f 6/1/6 36/1/36 23/1/23
f 11/1/11 37/1/37 36/1/36
f 12/1/12 39/1/39 38/1/38
f 7/1/7 25/1/25 39/1/39
f 8/1/8 38/1/38 25/1/25
f 9/1/9 28/1/28 40/1/40
f 7/1/7 39/1/39 28/1/28
f 12/1/12 40/1/40 39/1/39
f 12/1/12 38/1/38 41/1/41
f 8/1/8 37/1/37 38/1/38
f 11/1/11 41/1/41 37/1/37
f 10/1/10 31/1/31 42/1/42
f 9/1/9 40/1/40 31/1/31
f 12/1/12 42/1/42 40/1/40
f 11/1/11 34/1/34 41/1/41
f 10/1/10 42/1/42 34/1/34
f 12/1/12 41/1/41 42/1/42